<mxfile host="app.diagrams.net" modified="2021-12-03T10:20:17.952Z" agent="5.0 (Macintosh; Intel Mac OS X 10_15_7) AppleWebKit/537.36 (KHTML, like Gecko) Chrome/96.0.4664.55 Safari/537.36" etag="Ys96ueFw2aH-PNKS6ci6" version="15.4.3" type="github">
  <diagram id="37Ex4Ads8TwcwElpAcRe" name="Page-1">
    <mxGraphModel dx="788" dy="512" grid="1" gridSize="10" guides="1" tooltips="1" connect="1" arrows="1" fold="1" page="1" pageScale="1" pageWidth="827" pageHeight="1169" math="0" shadow="0">
      <root>
        <mxCell id="0" />
        <mxCell id="1" parent="0" />
        <mxCell id="0g2mrC-BWl_kf8HnJqxZ-4" style="rounded=0;orthogonalLoop=1;jettySize=auto;html=1;exitX=1;exitY=0.3333333333333333;exitDx=0;exitDy=0;exitPerimeter=0;endArrow=none;endFill=0;entryX=0;entryY=1;entryDx=0;entryDy=0;" edge="1" parent="1" source="0g2mrC-BWl_kf8HnJqxZ-1" target="0g2mrC-BWl_kf8HnJqxZ-3">
          <mxGeometry relative="1" as="geometry">
            <mxPoint x="290" y="150" as="targetPoint" />
          </mxGeometry>
        </mxCell>
        <mxCell id="0g2mrC-BWl_kf8HnJqxZ-19" style="edgeStyle=none;rounded=0;orthogonalLoop=1;jettySize=auto;html=1;exitX=1;exitY=0.3333333333333333;exitDx=0;exitDy=0;exitPerimeter=0;fontSize=9;startArrow=none;startFill=0;endArrow=none;endFill=0;" edge="1" parent="1" source="0g2mrC-BWl_kf8HnJqxZ-1">
          <mxGeometry relative="1" as="geometry">
            <mxPoint x="320" y="300" as="targetPoint" />
          </mxGeometry>
        </mxCell>
        <mxCell id="0g2mrC-BWl_kf8HnJqxZ-1" value="Portier" style="shape=umlActor;verticalLabelPosition=bottom;verticalAlign=top;html=1;outlineConnect=0;" vertex="1" parent="1">
          <mxGeometry x="200" y="260" width="30" height="60" as="geometry" />
        </mxCell>
        <mxCell id="0g2mrC-BWl_kf8HnJqxZ-5" style="edgeStyle=none;rounded=0;orthogonalLoop=1;jettySize=auto;html=1;exitX=1;exitY=0.3333333333333333;exitDx=0;exitDy=0;exitPerimeter=0;entryX=0.03;entryY=0.631;entryDx=0;entryDy=0;endArrow=none;endFill=0;entryPerimeter=0;" edge="1" parent="1" source="0g2mrC-BWl_kf8HnJqxZ-2" target="0g2mrC-BWl_kf8HnJqxZ-3">
          <mxGeometry relative="1" as="geometry" />
        </mxCell>
        <mxCell id="0g2mrC-BWl_kf8HnJqxZ-2" value="Gast" style="shape=umlActor;verticalLabelPosition=bottom;verticalAlign=top;html=1;outlineConnect=0;" vertex="1" parent="1">
          <mxGeometry x="200" y="85" width="30" height="60" as="geometry" />
        </mxCell>
        <mxCell id="0g2mrC-BWl_kf8HnJqxZ-12" value="&amp;lt;&amp;lt;include&amp;gt;&amp;gt;" style="edgeStyle=none;rounded=0;orthogonalLoop=1;jettySize=auto;html=1;exitX=0.5;exitY=1;exitDx=0;exitDy=0;entryX=0.5;entryY=0;entryDx=0;entryDy=0;endArrow=classic;endFill=1;dashed=1;" edge="1" parent="1" source="0g2mrC-BWl_kf8HnJqxZ-3" target="0g2mrC-BWl_kf8HnJqxZ-11">
          <mxGeometry relative="1" as="geometry" />
        </mxCell>
        <mxCell id="0g2mrC-BWl_kf8HnJqxZ-15" value="&amp;lt;&amp;lt;extend&amp;gt;&amp;gt;" style="edgeStyle=none;rounded=0;orthogonalLoop=1;jettySize=auto;html=1;exitX=1;exitY=0.5;exitDx=0;exitDy=0;entryX=0;entryY=0.5;entryDx=0;entryDy=0;dashed=1;endArrow=none;endFill=0;startArrow=classic;startFill=1;" edge="1" parent="1" source="0g2mrC-BWl_kf8HnJqxZ-3" target="0g2mrC-BWl_kf8HnJqxZ-14">
          <mxGeometry relative="1" as="geometry" />
        </mxCell>
        <mxCell id="0g2mrC-BWl_kf8HnJqxZ-3" value="Zimmer reservieren&lt;br&gt;&lt;br&gt;&lt;font style=&quot;font-size: 9px&quot;&gt;&lt;b&gt;extension points&lt;/b&gt;&lt;/font&gt;&lt;br&gt;Frühstück buchen" style="ellipse;whiteSpace=wrap;html=1;" vertex="1" parent="1">
          <mxGeometry x="320" y="70" width="120" height="80" as="geometry" />
        </mxCell>
        <mxCell id="0g2mrC-BWl_kf8HnJqxZ-6" value="Reinigungskraft" style="shape=umlActor;verticalLabelPosition=bottom;verticalAlign=top;html=1;outlineConnect=0;" vertex="1" parent="1">
          <mxGeometry x="210" y="410" width="30" height="60" as="geometry" />
        </mxCell>
        <mxCell id="0g2mrC-BWl_kf8HnJqxZ-10" value="" style="html=1;rounded=0;endArrow=none;endFill=0;entryX=1;entryY=0.5;entryDx=0;entryDy=0;" edge="1" parent="1" target="0g2mrC-BWl_kf8HnJqxZ-3">
          <mxGeometry width="100" relative="1" as="geometry">
            <mxPoint x="320" y="109.58" as="sourcePoint" />
            <mxPoint x="420" y="109.58" as="targetPoint" />
          </mxGeometry>
        </mxCell>
        <mxCell id="0g2mrC-BWl_kf8HnJqxZ-11" value="Daten eingeben" style="ellipse;whiteSpace=wrap;html=1;" vertex="1" parent="1">
          <mxGeometry x="332" y="200" width="96" height="50" as="geometry" />
        </mxCell>
        <mxCell id="0g2mrC-BWl_kf8HnJqxZ-14" value="Frühstück buchen" style="ellipse;whiteSpace=wrap;html=1;" vertex="1" parent="1">
          <mxGeometry x="580" y="85" width="96" height="50" as="geometry" />
        </mxCell>
        <mxCell id="0g2mrC-BWl_kf8HnJqxZ-16" value="&lt;font style=&quot;font-size: 9px&quot;&gt;condition: (Frühstück gewünscht). Extension point: Frühstück buchen&lt;/font&gt;" style="rounded=0;whiteSpace=wrap;html=1;" vertex="1" parent="1">
          <mxGeometry x="450" y="120" width="120" height="50" as="geometry" />
        </mxCell>
        <mxCell id="0g2mrC-BWl_kf8HnJqxZ-17" value="Check-In&lt;br&gt;&lt;br&gt;&lt;b&gt;extension points&lt;br&gt;&lt;/b&gt;Zimmer Reinigen" style="ellipse;whiteSpace=wrap;html=1;fontSize=9;" vertex="1" parent="1">
          <mxGeometry x="320" y="260" width="120" height="80" as="geometry" />
        </mxCell>
        <mxCell id="0g2mrC-BWl_kf8HnJqxZ-18" value="" style="html=1;rounded=0;fontSize=9;startArrow=none;startFill=0;endArrow=none;endFill=0;entryX=1;entryY=0.5;entryDx=0;entryDy=0;exitX=0;exitY=0.5;exitDx=0;exitDy=0;" edge="1" parent="1" source="0g2mrC-BWl_kf8HnJqxZ-17" target="0g2mrC-BWl_kf8HnJqxZ-17">
          <mxGeometry width="100" relative="1" as="geometry">
            <mxPoint x="370" y="250" as="sourcePoint" />
            <mxPoint x="470" y="250" as="targetPoint" />
          </mxGeometry>
        </mxCell>
      </root>
    </mxGraphModel>
  </diagram>
</mxfile>
